# xmcd
#
# Track frame offsets:
# 150
# 16878
# 30867
# 45691
# 57657
# 73588
# 88023
# 101076
# 114730
# 128961
# 147314
# 160534
# 174535
# 189147
# 204013
# 219245
# 232308
# 247380
# 263847
# 277330
#
# Disc length: 3910 seconds
#
#
# Revision: 1
# Processed by: cddbd v1.5.1PL0 Copyright (c) Steve Scherf et al.
# Submitted via: FreeRIP 2.92 
#
DISCID=260f4414
DTITLE=Gauchas - Gaúchesco Bom pra Dançar
DYEAR=2003
DGENRE=Country
TTITLE0=Tchê Garotos - Vanera Turbo
TTITLE1=Tradição - Tikabum
TTITLE2=Ivonir - A Dança do Robozão
TTITLE3=Tchê Gurí - Tá Ligado
TTITLE4=Tradição - Barquinho
TTITLE5=Tchê Garotos - A Gang da Vanera
TTITLE6=Os Mirins - O Pegadão
TTITLE7=Tchê Gurí - Bonitão do Bailão
TTITLE8=Os Serranos - Pinga na Goela
TTITLE9=Ivonir - Carona na 101
TTITLE10=Tchê Garotos - Amante Profissional
TTITLE11=Os Mirins - Vem Cá Que Tem
TTITLE12=Os Serranos - Suspiro de Cordeona
TTITLE13=Ivonir - Chevetão
TTITLE14=Tchê Garotos - Vai Mexendo o Panelão
TTITLE15=Os Serranos - O Que Tem a Rosa
TTITLE16=Ivonir - Bicando as Loirinhas
TTITLE17=Tchê Gurí - Quando a Gaita Roncar
TTITLE18=Tradição - Pé Cum Pé
TTITLE19=Ivonir - Carne Boa
EXTD=YEAR: 2003
EXTT0=
EXTT1=
EXTT2=
EXTT3=
EXTT4=
EXTT5=
EXTT6=
EXTT7=
EXTT8=
EXTT9=
EXTT10=
EXTT11=
EXTT12=
EXTT13=
EXTT14=
EXTT15=
EXTT16=
EXTT17=
EXTT18=
EXTT19=
PLAYORDER=
